<svg xmlns="http://www.w3.org/2000/svg" viewBox="0 0 764 190" fill="none" role="img" aria-label="UVBrain">
  <title>UVBrain lockup — for light grounds</title>
  <defs>
    <linearGradient id="uvbBrainL" x1="0.15" y1="0" x2="0.35" y2="1">
      <stop offset="0" stop-color="#B39BFF"/>
      <stop offset="0.5" stop-color="#5AAEE8"/>
      <stop offset="1" stop-color="#4FE0A8"/>
    </linearGradient>
    <radialGradient id="uvbNodeL" cx="50%" cy="50%" r="50%">
      <stop offset="0" stop-color="#FFFFFF"/>
      <stop offset="0.4" stop-color="#FFE9A8"/>
      <stop offset="1" stop-color="#FFE9A8" stop-opacity="0"/>
    </radialGradient>
  </defs>

  <g>
    <path d="M60 46 C78 26 118 24 142 42 C158 52 162 66 156 80 C168 86 168 104 154 110 C150 126 132 136 116 132 C112 150 96 154 88 140 C74 150 52 146 44 128 C24 120 22 74 40 58 C46 50 52 50 60 46 Z"
          stroke="url(#uvbBrainL)" stroke-width="6" stroke-linejoin="round" stroke-linecap="round"/>
    <g stroke="url(#uvbBrainL)" stroke-width="4.4" stroke-linecap="round" opacity="0.92">
      <path d="M58 52 C72 62 66 80 80 88 C68 96 74 112 60 120"/>
      <path d="M92 44 C86 66 100 82 92 102 C86 118 94 128 90 138"/>
      <path d="M120 48 C112 68 126 84 118 104"/>
      <path d="M70 118 C86 128 102 124 110 130"/>
    </g>
    <g stroke-width="4.6" stroke-linecap="round">
      <line x1="150" y1="96" x2="238" y2="52" stroke="#8B6BFF"/>
      <line x1="150" y1="96" x2="240" y2="82" stroke="#1FA9C4"/>
      <line x1="150" y1="96" x2="240" y2="110" stroke="#20B892"/>
      <line x1="150" y1="96" x2="238" y2="140" stroke="#8DBE2E"/>
    </g>
    <circle cx="150" cy="96" r="16" fill="url(#uvbNodeL)"/>
    <circle cx="150" cy="96" r="6" fill="#3A21B0"/>
    <circle cx="150" cy="96" r="2.6" fill="#FFFFFF"/>
  </g>

  <text x="256" y="132" font-family="'Hanken Grotesk','Plus Jakarta Sans',system-ui,sans-serif"
        font-size="128" font-weight="800" letter-spacing="-4">
    <tspan fill="#8DBE2E">UV</tspan><tspan fill="#191325">Brain</tspan>
  </text>
</svg>
